<svg width="402" height="297" viewBox="0 0 402 297" fill="none" xmlns="http://www.w3.org/2000/svg">
<g clip-path="url(#clip0_81_144)">
<mask id="path-1-inside-1_81_144" fill="white">
<path d="M-69 -78.5967L96.3683 -93.0645L110.836 72.3038L-54.5321 86.7716L-69 -78.5967Z"/>
</mask>
<path d="M110.836 72.3038L110.923 73.3L111.92 73.2128L111.832 72.2166L110.836 72.3038ZM96.3683 -93.0645L95.3721 -92.9774L109.84 72.3909L110.836 72.3038L111.832 72.2166L97.3645 -93.1517L96.3683 -93.0645ZM110.836 72.3038L110.749 71.3076L-54.6193 85.7754L-54.5321 86.7716L-54.445 87.7678L110.923 73.3L110.836 72.3038Z" fill="white" mask="url(#path-1-inside-1_81_144)"/>
<mask id="path-3-inside-2_81_144" fill="white">
<path d="M96.3691 -93.0645L261.737 -107.532L276.205 57.836L110.837 72.3039L96.3691 -93.0645Z"/>
</mask>
<path d="M276.205 57.836L276.292 58.8322L277.289 58.745L277.202 57.7489L276.205 57.836ZM261.737 -107.532L260.741 -107.445L275.209 57.9232L276.205 57.836L277.202 57.7489L262.734 -107.619L261.737 -107.532ZM276.205 57.836L276.118 56.8398L110.75 71.3077L110.837 72.3039L110.924 73.3001L276.292 58.8322L276.205 57.836Z" fill="white" mask="url(#path-3-inside-2_81_144)"/>
<mask id="path-5-inside-3_81_144" fill="white">
<path d="M261.736 -107.532L427.105 -122L441.572 43.3682L276.204 57.8361L261.736 -107.532Z"/>
</mask>
<path d="M441.572 43.3682L441.66 44.3644L442.656 44.2773L442.569 43.2811L441.572 43.3682ZM427.105 -122L426.108 -121.913L440.576 43.4554L441.572 43.3682L442.569 43.2811L428.101 -122.087L427.105 -122ZM441.572 43.3682L441.485 42.372L276.117 56.8399L276.204 57.8361L276.291 58.8323L441.66 44.3644L441.572 43.3682Z" fill="white" mask="url(#path-5-inside-3_81_144)"/>
<path d="M75.7733 94.3076C76.9369 94.2058 77.9637 94.4693 78.8539 95.0981C79.7601 95.7255 80.4935 96.6732 81.0541 97.9412C81.6293 99.1918 81.9957 100.718 82.1533 102.519C82.3108 104.32 82.2157 105.894 81.8678 107.242C81.5344 108.572 80.9761 109.624 80.1927 110.4C79.4252 111.174 78.4597 111.611 77.2961 111.713C76.1325 111.815 75.0977 111.552 74.1916 110.925C73.3014 110.296 72.5687 109.356 71.9935 108.106C71.4329 106.838 71.0738 105.303 70.9162 103.502C70.7586 101.701 70.8465 100.135 71.1798 98.8051C71.5277 97.4576 72.0854 96.397 72.8529 95.6231C73.6363 94.8479 74.6098 94.4094 75.7733 94.3076ZM75.8361 95.0249C74.6247 95.1308 73.7231 95.9325 73.1314 97.4297C72.5542 98.9097 72.3736 100.885 72.5898 103.355C72.8059 105.826 73.3274 107.748 74.1542 109.121C74.9956 110.477 76.022 111.102 77.2334 110.996C78.4607 110.888 79.3629 110.095 79.9401 108.615C80.516 107.119 80.6958 105.136 80.4796 102.665C80.2635 100.195 79.7427 98.2808 78.9173 96.9235C78.0905 95.5504 77.0634 94.9175 75.8361 95.0249ZM92.4365 92.3679L92.5468 92.5269C91.4472 92.9925 90.5223 93.6195 89.7722 94.4079C89.0366 95.1789 88.4563 96.0729 88.0313 97.0898C87.6209 98.0894 87.3463 99.1735 87.2076 100.342C87.069 101.511 87.054 102.716 87.1628 103.96C87.2674 105.155 87.4956 106.203 87.8474 107.104C88.2152 108.003 88.6931 108.692 89.281 109.171C89.8849 109.648 90.5933 109.851 91.4062 109.78C92.1713 109.713 92.7661 109.444 93.1907 108.973C93.6312 108.501 93.9338 107.921 94.0983 107.232C94.2775 106.525 94.3256 105.79 94.2427 105.027C94.157 104.231 93.9609 103.55 93.6543 102.982C93.3636 102.413 92.9652 101.99 92.4592 101.714C91.9517 101.421 91.3553 101.304 90.6699 101.364C90.1758 101.407 89.6987 101.553 89.2387 101.803C88.7946 102.05 88.4312 102.395 88.1487 102.837L87.9864 102.635C88.3576 102.104 88.793 101.665 89.2925 101.316C89.7906 100.951 90.3144 100.697 90.8639 100.552C91.4279 100.39 91.9785 100.35 92.5157 100.432C93.0673 100.496 93.5817 100.684 94.0587 100.995C94.5356 101.307 94.9448 101.761 95.286 102.358C95.6259 102.938 95.8661 103.664 96.0066 104.535C96.1512 105.454 96.0612 106.353 95.7367 107.233C95.4266 108.095 94.9048 108.831 94.1712 109.442C93.4522 110.035 92.5514 110.386 91.4689 110.497C90.4024 110.607 89.4231 110.427 88.5309 109.959C87.6546 109.49 86.9328 108.766 86.3654 107.788C85.8125 106.792 85.4806 105.568 85.3696 104.117C85.2768 102.872 85.3361 101.622 85.5475 100.367C85.7734 99.0942 86.1678 97.9114 86.7307 96.8182C87.2922 95.709 88.0443 94.7598 88.9871 93.9707C89.9299 93.1815 91.0797 92.6472 92.4365 92.3679Z" fill="white"/>
<path d="M243.133 79.6655C244.296 79.5637 245.323 79.8272 246.213 80.456C247.119 81.0834 247.853 82.0311 248.413 83.2991C248.989 84.5497 249.355 86.0756 249.513 87.8767C249.67 89.6778 249.575 91.2521 249.227 92.5996C248.894 93.9297 248.335 94.9823 247.552 95.7576C246.785 96.5314 245.819 96.9692 244.655 97.071C243.492 97.1728 242.457 96.91 241.551 96.2826C240.661 95.6538 239.928 94.7141 239.353 93.4634C238.792 92.1955 238.433 90.6609 238.276 88.8598C238.118 87.0587 238.206 85.4931 238.539 84.163C238.887 82.8155 239.445 81.7549 240.212 80.9811C240.996 80.2058 241.969 79.7673 243.133 79.6655ZM243.195 80.3828C241.984 80.4888 241.083 81.2904 240.491 82.7877C239.914 84.2676 239.733 86.2428 239.949 88.7134C240.165 91.184 240.687 93.1058 241.514 94.479C242.355 95.8348 243.381 96.4597 244.593 96.3538C245.82 96.2464 246.722 95.4527 247.3 93.9728C247.875 92.4769 248.055 90.4937 247.839 88.0231C247.623 85.5526 247.102 83.6387 246.277 82.2815C245.45 80.9083 244.423 80.2754 243.195 80.3828ZM250.89 82.0947L251.323 79.3344L260.882 78.4499L258.907 85.6093C258.823 85.9379 258.696 86.4068 258.524 87.016C258.368 87.6239 258.188 88.3143 257.982 89.0871C257.793 89.8586 257.606 90.6539 257.42 91.4732C257.234 92.2765 257.06 93.0466 256.9 93.7834C256.755 94.5188 256.642 95.155 256.561 95.6922L254.887 95.8386C255.035 95.3277 255.209 94.7424 255.408 94.0825C255.606 93.4067 255.816 92.6896 256.039 91.9313C256.278 91.1716 256.508 90.4126 256.731 89.6543C256.953 88.8801 257.161 88.1471 257.358 87.4553C257.57 86.7622 257.757 86.1436 257.918 85.5994L259.539 79.8925L252.797 80.4823C252.319 80.5242 251.955 80.6765 251.704 80.9393C251.454 81.2021 251.263 81.5802 251.129 82.0737L250.89 82.0947Z" fill="white"/>
<rect x="276.205" y="57.8359" width="166" height="166" transform="rotate(-5 276.205 57.8359)" stroke="white"/>
<path d="M405.514 65.459C406.677 65.3572 407.704 65.6207 408.594 66.2495C409.5 66.8769 410.234 67.8246 410.794 69.0925C411.37 70.3432 411.736 71.869 411.893 73.6702C412.051 75.4713 411.956 77.0456 411.608 78.393C411.275 79.7231 410.716 80.7758 409.933 81.551C409.165 82.3249 408.2 82.7627 407.036 82.8645C405.873 82.9663 404.838 82.7035 403.932 82.0761C403.042 81.4473 402.309 80.5075 401.734 79.2569C401.173 77.9889 400.814 76.4544 400.656 74.6533C400.499 72.8522 400.587 71.2865 400.92 69.9564C401.268 68.609 401.826 67.5483 402.593 66.7745C403.377 65.9993 404.35 65.5608 405.514 65.459ZM405.576 66.1762C404.365 66.2822 403.463 67.0838 402.872 68.5811C402.294 70.061 402.114 72.0363 402.33 74.5069C402.546 76.9774 403.068 78.8993 403.894 80.2725C404.736 81.6283 405.762 82.2532 406.974 82.1472C408.201 82.0398 409.103 81.2462 409.68 79.7663C410.256 78.2704 410.436 76.2872 410.22 73.8166C410.004 71.346 409.483 69.4321 408.658 68.0749C407.831 66.7017 406.804 66.0689 405.576 66.1762ZM415.276 68.6282C415.21 67.8791 415.319 67.195 415.602 66.5759C415.9 65.9396 416.352 65.4182 416.959 65.0117C417.582 64.6039 418.339 64.353 419.23 64.2589C420.057 64.1705 420.804 64.2578 421.469 64.5208C422.151 64.7824 422.701 65.2 423.121 65.7736C423.556 66.3458 423.812 67.0623 423.887 67.923C423.948 68.6243 423.869 69.2817 423.65 69.8951C423.429 70.4927 423.074 71.0216 422.584 71.4821C422.093 71.9266 421.473 72.2779 420.725 72.5361L420.048 72.234C420.619 71.7825 421.052 71.319 421.348 70.8434C421.66 70.3664 421.866 69.8826 421.968 69.3919C422.084 68.8838 422.12 68.3827 422.077 67.8886C421.994 66.9322 421.704 66.1947 421.209 65.6758C420.713 65.1411 420.082 64.9072 419.317 64.9741C418.504 65.0452 417.9 65.3952 417.505 66.024C417.127 66.6514 416.972 67.3635 417.042 68.1605C417.088 68.6865 417.227 69.1722 417.458 69.6177C417.69 70.0632 418.006 70.4612 418.406 70.8117C418.805 71.1462 419.28 71.4419 419.833 71.6987C420.301 71.9147 420.843 72.1403 421.458 72.3756C422.071 72.595 422.674 72.8795 423.267 73.2292C423.859 73.5629 424.363 74.0086 424.782 74.5663C425.198 75.108 425.445 75.8172 425.522 76.6939C425.6 77.5865 425.454 78.3943 425.083 79.1173C424.727 79.823 424.176 80.4013 423.428 80.8522C422.697 81.3017 421.805 81.5724 420.753 81.6644C419.972 81.7328 419.245 81.684 418.572 81.518C417.899 81.352 417.314 81.09 416.817 80.732C416.334 80.3566 415.948 79.8925 415.659 79.3396C415.37 78.7867 415.21 78.1582 415.181 77.4541C415.159 77.0223 415.188 76.6183 415.267 76.2419C415.361 75.8482 415.498 75.4829 415.677 75.146C415.871 74.7918 416.108 74.4659 416.387 74.1684C416.681 73.8536 417.016 73.5593 417.394 73.2853C417.786 72.994 418.22 72.7232 418.696 72.4727L419.309 72.8768C418.615 73.3872 418.037 74.0241 417.573 74.7874C417.109 75.5347 416.916 76.451 416.995 77.5363C417.078 78.6693 417.451 79.5441 418.116 80.1606C418.78 80.777 419.646 81.0385 420.714 80.9451C421.495 80.8768 422.11 80.6543 422.559 80.2778C423.024 79.8998 423.353 79.4374 423.546 78.8905C423.739 78.3436 423.809 77.7752 423.758 77.1855C423.704 76.5639 423.547 76.0556 423.287 75.6607C423.044 75.2644 422.734 74.9382 422.358 74.6819C421.983 74.4257 421.578 74.2121 421.146 74.0412C420.729 73.8688 420.321 73.7038 419.922 73.546C419.304 73.2788 418.725 72.9922 418.185 72.6861C417.642 72.3641 417.161 72.0047 416.741 71.6078C416.319 71.195 415.983 70.7426 415.731 70.2507C415.479 69.7588 415.327 69.2179 415.276 68.6282Z" fill="white"/>
<path d="M98.3716 276.166L93.1834 276.62L93.1864 276.379L93.6884 276.335C94.055 276.303 94.3547 276.148 94.5874 275.871C94.8201 275.593 94.9211 275.279 94.8905 274.929L93.7881 262.329C93.7547 261.946 93.6339 261.668 93.4259 261.493C93.2325 261.301 92.9524 261.221 92.5858 261.253L91.6773 261.333L91.6564 261.094C91.971 261.018 92.2689 260.936 92.5503 260.847C92.8475 260.757 93.1275 260.652 93.3901 260.533C93.6513 260.397 93.9017 260.231 94.1414 260.033C94.3797 259.82 94.6065 259.567 94.8219 259.275L95.061 259.254L96.4227 274.819C96.4534 275.169 96.6074 275.461 96.8847 275.694C97.1766 275.909 97.4979 276.001 97.8486 275.971L98.3506 275.927L98.3716 276.166ZM103.499 258.564C104.467 258.431 105.316 258.494 106.045 258.751C106.773 258.992 107.352 259.375 107.784 259.9C108.214 260.408 108.459 261.013 108.521 261.714C108.571 262.288 108.491 262.849 108.282 263.398C108.073 263.946 107.778 264.429 107.397 264.848C107.032 265.266 106.619 265.583 106.156 265.8C105.707 266 105.263 266.063 104.823 265.989C105.349 265.943 105.883 265.993 106.426 266.138C106.968 266.267 107.477 266.496 107.956 266.823C108.434 267.151 108.825 267.582 109.129 268.118C109.447 268.636 109.638 269.254 109.701 269.971C109.766 270.72 109.669 271.443 109.409 272.141C109.164 272.837 108.787 273.48 108.277 274.071C107.781 274.644 107.174 275.139 106.455 275.555C105.738 275.987 104.938 276.298 104.055 276.488C103.19 276.692 102.272 276.756 101.302 276.681L101.328 276.437C102.286 276.37 103.176 276.163 103.997 275.818C104.818 275.474 105.533 275.017 106.142 274.45C106.766 273.882 107.231 273.223 107.535 272.473C107.854 271.723 107.977 270.917 107.901 270.056C107.822 269.148 107.542 268.425 107.061 267.889C106.595 267.336 105.984 266.955 105.227 266.749C104.469 266.526 103.611 266.456 102.655 266.54L102.682 266.297C103.399 266.234 104.086 266.013 104.744 265.635C105.401 265.256 105.919 264.745 106.296 264.101C106.69 263.457 106.824 262.698 106.699 261.826C106.642 261.349 106.483 260.913 106.224 260.518C105.979 260.106 105.629 259.783 105.175 259.55C104.737 259.315 104.183 259.227 103.514 259.286C102.526 259.372 101.787 259.742 101.298 260.395C100.808 261.032 100.628 261.819 100.758 262.755L100.519 262.776L99.9177 260.588C100.263 260.124 100.708 259.708 101.254 259.339C101.814 258.952 102.563 258.694 103.499 258.564Z" fill="white"/>
<path d="M262.745 261.785L257.556 262.239L257.559 261.998L258.061 261.954C258.428 261.922 258.728 261.767 258.96 261.49C259.193 261.212 259.294 260.898 259.264 260.548L258.161 247.948C258.128 247.565 258.007 247.287 257.799 247.112C257.606 246.92 257.325 246.841 256.959 246.873L256.05 246.952L256.029 246.713C256.344 246.637 256.642 246.555 256.923 246.466C257.221 246.376 257.501 246.271 257.763 246.152C258.024 246.017 258.275 245.85 258.514 245.652C258.753 245.439 258.98 245.186 259.195 244.894L259.434 244.873L260.796 260.438C260.826 260.789 260.98 261.08 261.258 261.313C261.55 261.528 261.871 261.621 262.222 261.59L262.724 261.546L262.745 261.785ZM270.931 246.277L272.036 243.771L272.275 243.75L273.767 260.797L272.213 260.933L270.931 246.277ZM272.036 243.771L272.353 244.634L265.937 254.182L274.161 253.462C274.607 253.423 274.899 253.358 275.035 253.265C275.172 253.173 275.305 253.041 275.434 252.869L275.673 252.848L275.328 254.685L264.258 255.654L264.238 255.415L272.036 243.771ZM273.635 259.29C273.666 259.641 273.82 259.933 274.097 260.166C274.39 260.397 274.712 260.497 275.063 260.466L275.326 260.443L275.347 260.683L270.613 261.097L270.616 260.856L270.855 260.835C271.222 260.803 271.522 260.656 271.756 260.394C272.005 260.116 272.113 259.793 272.081 259.426L273.635 259.29Z" fill="white"/>
</g>
<defs>
<clipPath id="clip0_81_144">
<rect width="402" height="297" fill="white"/>
</clipPath>
</defs>
</svg>
